/* XPM */
static char *ba1f4498f1124446ecc0ded9ce1616fbhuklyKIdlCXKNdqU[] = {
/* columns rows colors chars-per-pixel */
"64 64 251 2 ",
"   c #09020C",
".  c #1C040B",
"X  c #14020C",
"o  c #020314",
"O  c #0A0113",
"+  c #01041C",
"@  c #05071B",
"#  c #130313",
"$  c #17051A",
"%  c #0C131D",
"&  c #240304",
"*  c #24060A",
"=  c #2C060A",
"-  c #2A0608",
";  c #33060B",
":  c #350A0E",
">  c #3B0B0C",
",  c #340505",
"<  c #280917",
"1  c #3B0C12",
"2  c #360B13",
"3  c #3B151B",
"4  c #3F1902",
"5  c #010423",
"6  c #020B24",
"7  c #020B2C",
"8  c #090927",
"9  c #04122A",
"0  c #16172C",
"q  c #010C33",
"w  c #020D3A",
"e  c #070A33",
"r  c #01133C",
"t  c #071537",
"y  c #151738",
"u  c #140A28",
"i  c #3A1529",
"p  c #251538",
"a  c #2F1830",
"s  c #1D2139",
"d  c #312B35",
"f  c #3F2119",
"g  c #450D0C",
"h  c #49140C",
"j  c #430D12",
"k  c #4C0E12",
"l  c #550E12",
"z  c #4A1419",
"x  c #541214",
"c  c #5A1416",
"v  c #54141A",
"b  c #5C151A",
"n  c #561919",
"m  c #55100E",
"M  c #64161B",
"N  c #6A161C",
"B  c #64191D",
"V  c #6B191D",
"C  c #681515",
"Z  c #721B1E",
"A  c #75181A",
"S  c #680F13",
"D  c #4E2817",
"F  c #7D221F",
"G  c #4A1A28",
"H  c #581926",
"J  c #4C1832",
"K  c #681C23",
"L  c #751C21",
"P  c #7A1E22",
"I  c #791B29",
"U  c #5B2729",
"Y  c #473737",
"T  c #593A37",
"R  c #502D2B",
"E  c #692429",
"W  c #7D2124",
"Q  c #782529",
"!  c #693834",
"~  c #703131",
"^  c #6A4837",
"/  c #52403E",
"(  c #010F43",
")  c #021543",
"_  c #031A4B",
"`  c #0B1C4B",
"'  c #061846",
"]  c #161C48",
"[  c #021C53",
"{  c #081B58",
"}  c #121D58",
"|  c #2A1C47",
" . c #082249",
".. c #152249",
"X. c #092456",
"o. c #162758",
"O. c #1C354D",
"+. c #2B3152",
"@. c #131E60",
"#. c #0C2667",
"$. c #162968",
"%. c #1A356A",
"&. c #192E74",
"*. c #1B3678",
"=. c #273567",
"-. c #263878",
";. c #31346E",
":. c #4E3052",
">. c #713452",
",. c #513A6C",
"<. c #663A63",
"1. c #35445C",
"2. c #29437B",
"3. c #37467A",
"4. c #36486F",
"5. c #1F417E",
"6. c #50494F",
"7. c #695549",
"8. c #715048",
"9. c #79634E",
"0. c #44477A",
"q. c #4D526D",
"w. c #645664",
"e. c #546873",
"r. c #6F6C75",
"t. c #861D1C",
"y. c #8C221D",
"u. c #851E26",
"i. c #832325",
"p. c #852629",
"a. c #8A2629",
"s. c #8C2A2C",
"d. c #892626",
"f. c #92242D",
"g. c #932C2D",
"h. c #9A2D2D",
"j. c #982925",
"k. c #9D352C",
"l. c #8A2A35",
"z. c #952D32",
"x. c #9A2D35",
"c. c #883636",
"v. c #9C3234",
"b. c #9C333B",
"n. c #973839",
"m. c #8F372B",
"M. c #A6322D",
"N. c #A22E34",
"B. c #A43435",
"V. c #AA3535",
"C. c #AA3935",
"Z. c #A33B3B",
"A. c #AC3B3B",
"S. c #A5363A",
"D. c #B13E3D",
"F. c #B03837",
"G. c #A22E2B",
"H. c #91413D",
"J. c #A8443D",
"K. c #B2423E",
"L. c #B6463E",
"P. c #963643",
"I. c #8A3249",
"U. c #AB3B42",
"Y. c #B23D43",
"T. c #9A4545",
"R. c #8C554D",
"E. c #AA4544",
"W. c #B54442",
"Q. c #BA4644",
"!. c #B44A43",
"~. c #BB4A46",
"^. c #BD4D49",
"/. c #B74248",
"(. c #BE514D",
"). c #A55454",
"_. c #8A685A",
"`. c #936953",
"'. c #A96F5C",
"]. c #997768",
"[. c #8D726F",
"{. c #A77868",
"}. c #AC716E",
"|. c #825E60",
" X c #C04F4A",
".X c #C2534D",
"XX c #C7584F",
"oX c #C65952",
"OX c #C95D54",
"+X c #C45750",
"@X c #CE6259",
"#X c #CC6157",
"$X c #D1665C",
"%X c #C47975",
"&X c #9B8772",
"*X c #B58777",
"=X c #AF8C76",
"-X c #CC8F7B",
";X c #C3A37D",
":X c #1C3C83",
">X c #273C85",
",X c #343F84",
"<X c #284588",
"1X c #334B8C",
"2X c #394989",
"3X c #38548A",
"4X c #2C4896",
"5X c #334B94",
"6X c #384B99",
"7X c #395396",
"8X c #29508B",
"9X c #3351A3",
"0X c #42569A",
"qX c #454F88",
"wX c #586790",
"eX c #6F7492",
"rX c #536BAB",
"tX c #697DA4",
"yX c #455BA2",
"uX c #8C7C87",
"iX c #817FA4",
"pX c #7588B5",
"aX c #7A8694",
"sX c #768EC9",
"dX c #948990",
"fX c #BA988A",
"gX c #B3918C",
"hX c #8C93B5",
"jX c #B1ACB8",
"kX c #A4A0AD",
"lX c #CF9B91",
"zX c #D0AA97",
"xX c #EBA79A",
"cX c #D8B5A7",
"vX c #D2B0A7",
"bX c #E8B5AA",
"nX c #DBC6B5",
"mX c #F7C6BB",
"MX c #EBC8B7",
"NX c #96ADCE",
"BX c #B0B6CD",
"VX c #90A2D1",
"CX c #BDCBF0",
"ZX c #B9C8DA",
"AX c #CFC9D4",
"SX c #F6CAC4",
"DX c #EED4C9",
"FX c #F8E4D5",
"GX c #CED5F2",
"HX c #D5E9FC",
"JX c #EBF0FE",
/* pixels */
"$X$X@X@XOX@XOXOX(.OX(.(.+X(.(.(.(.!./.Q.Q.L.K.K.!.J.n.J.A.S.C.F.V.B.B.b.v.v.v.n.v.z.z.z.z.z.g.g.g.s.a.a.a.p.i.i.i.u.W I P P P L ",
"$X$X@X@X@XOXOX+XOX(.+X(.(.(.(.^./.~.~.~.Q.L.K.K.Z.J.Z.J.Z.A.V.V.C.B.B.b.B.b.b.k.n.z.z.m.z.z.g.s.s.s.s.s.a.a.i.i.i.P W P P P L L ",
"@X@X@XOX@XOXoXoX+XoX(.+X.X(.^.^.^.~.~.!.D.L.L.K.E.W.E.A.A.A.A.A.V.B.B.B.C.v.v.v.k.z.z.g.z.h.g.g.g.f.s.s.a.i.i.i.W u.W W P L L L ",
"$X@X#X#XOXOXoXoX+X(.(.(.^.(.^./.^.~.Q.!.L.L.L.K.Y.Y.Y.A.A.S.A.C.Z.B.v.B.v.v.B.v.v.v.v.z.m.z.g.g.s.s.s.a.a.a.p.i.i.P W I P P L L ",
"@X@X#X#XOXOXOXoX+X.X.X.X(..X^.^.~.~.!.!.L.J.J.W.A.Y.Y.Y.U.U.Z.v.B.S.v.S.B.B.v.k.v.h.h.h.g.j.g.g.g.s.s.d.a.d.p.i.W i.W I P L L L ",
"$X@X#X#XOXOXoXoX+X.X.X(.^.^.^.~.^.^.L.L.L.!.!.W./.Y.U.U.U.P.H.n.Z.S.n.B.B.v.v.B.B.h.h.h.h.m.s.g.g.s.s.a.a.p.i.i.i.W W P P P L P ",
"@X@XOX#XOXOXoXoX+X.X.X(.(.^.~.~.^.L.!.!.L.!.E.E.E.U.P.U.T.n.c.T.n.Z.S.v.b.B.B.N.v.h.h.h.g.g.s.s.s.s.s.a.a.p.i.i.I i.W P P L L L ",
"@X@XOXOXOXOXoXoX+X.X.X.X^.^.~.~.!.!.L.L.L.L.!.E.E.T.).}.'.).T.c.T.n.n.n.b.v.B.k.N.v.k.h.h.m.m.g.z.s.a.s.a.d.i.i.i.W u.P P P L P ",
"#X#X#XOX#XoXXXXX.X.X(.^.^. X~.~.!.L.L.L. XF.(.E.T.}.cX=X`.R.~ Q T.I.c.m.n.n.B.z.v.G.v.h.g.g.m.s.s.s.d.s.p.d.i.i.P W W I P Q Z P ",
"OX#XoXOXoXoXXXXX.X.X.X^.^.^.^.~.!.!.!.L.L.D.W.n.%XSXfX[.lXzX{.^ R.T.c.T.n.n.z.B.h.h.h.h.g.g.g.s.s.s.s.p.d.d.i.i.i.P W P P L P Z ",
"OXOXOXoXoXOXXX.X.X.X^. X^.^.~./.!.!.Q.D.Q.Q.D.).lXvXnXFXDXnXbX{.}.}.R.Q T.c.m.v.x.h.h.g.z.s.s.s.s.d.d.d.p.i.i.W P W P P P L Z L ",
"OXXXXXoXoXoXXX.X.X X^.^.^.~.~.~.W.Q.Q.W.Q. XE.%XbXbXFXDXDXbXcX-XR.|._.~ c.c.n.z.z.h.h.g.g.g.s.s.s.s.d.d.p.p.i.W W P P P L L P Z ",
"XXXXXXXXXXXXXX.X.X X^.^.~.~.~.Q.~.!.Y.~./.U.U.xXlXFXFXDXFXMXcX=X_.8.|.! ~ c.c.s.z.z.z.g.f.s.s.s.d.s.p.i.d.i.i.i.P P P P L L Z Z ",
"XXXX.XXXXXXX.X.X X^.^.^.~.~.Q.!.W.Q.K.W./.U.'.bXDXDXFXFXMXMXzX=XdX>.T ! E T.c.l.z.f.z.f.g.s.l.a.p.s.d.i.i.i.W W P P P L L Z P Z ",
"XXXXXX.XXX.X.X X X X^.~.~.Q.Q.Q.D.Q.W.!.).H.}.mXSXvXcXvXMXzXH.^ T R R 7.T ~ c.c.s.g.g.f.a.a.a.p.d.d.i.i.W i.t.W Z W L L P L V Z ",
".X.XXX.X.X.X.X X X X~.~.~.Q.!.Q.E./.W.A.E.J.lXbXlX_.7.[.bX^ R.^ D Y f ^ ! ~ c.l.s.f.a.a.a.a.p.p.i.i.i.W W F W Z P F P P Z Z Z Z ",
" X.X.X X.X X X X^.^.~.~.~./.W.W.E.J.K.W.Y.b.%XbXcXzX].&XbX`.*X'.`.`.^ T ! >.~ l.f.f.f.d.p.p.p.Q W W i.W W L F P L P L L L L N L ",
" X X X.X X X X X^.~.Q.~.~.W.W.K.J.J.D.D.Y.Z.%XbXmXmXbXMXmX`.*XnXlX{.D ^ U ! Q s.f.f.a.d.p.p.W W W W W W W F P P L Z L L L K L N ",
" X X X X~. XL. X~.~.W.Q./.W.W.K.J.J.E.E.E.H.).xXmXFXmXbXzX8.U zXzX`.4 D D E ~ m.u.u.d.i.F W u.u.W F L F L L Z L L L L N L L N N ",
"L. XL. X X X XL.~.~.W.W.Q.W.Y.K.L.K.K.Z.Z.T.I.%XMXmXMXzX`.R ^ `.&X^ D h D ~ Q F i.u.i.F F W I u.W L L L F L Z Z L V V L N N N N ",
"~.~.~.~.~.^.~.~.~.Q./.W.W.Y.W.K.F.K.K.C.Z.J.m.'.;XmXmXbXfX`.8.D `.9.D 4 D ~ d.F t.t.F F Q P I I L L Z L L L E L N L Z K N N L K ",
"!.~.~.~.L.~.~.~.Q.Q./.Q.K.W.D.D.F.F.C.K.C.J.j.J.xXbX;X=X=X].~ ! =X`.D 4 B ~ F i.i.Z F E Q K L I P V Z E Z Z Z Z K N Z N L N N N ",
"Q.!.Q.Q.!.Q.Q.Q.Q.W.Y.W.W.Y.Y.A.K.C.C.M.K.M.M.M.-XmXzXcXfX&XgX}.{.^ D 4 b Q W W F L Z E E I K L K Z L V V V V K N V N N N K N N ",
"L.Q.L.Q.Q.L.Q.Q.W.W.K.K.D.D.A.A.C.V.J.M.C.M.K.j.L.xXcXFXnXfXfX{.8.R D z G ~ Q P Z F Z K K K K E K V V V V V V V N N K M N N M M ",
"K.K.K.Q.W.W.W.W.Y.W.D.D.D.D.A.A.D.U.S.b.n.Z.S.b.z.}.lXcXvX&X&X7.! J D f T U E I L L A A N V V V B V K B B V V B V V B V B N B M ",
"K.D.K.K.W.W.Y.K.K.D.Y.D.D.A.A.A.V.S.Z.n.n.b.b.U.x.P.).}.=X9.6.Y R U f Y w.R ! H K L N A C N V V B B B B B B B B B B B B B B M B ",
"D.K.D.D.D.D.K.Y.D.D.A.A.A.A.V.V.V.V.V.C.S.b.S.P.I.P.xX}.'.^ ^ ^ :.Y / r.6.# J ! K K A C C C C V B B K b B B B B B B B b M M M M ",
"A.A.A.D.D.D.A.A.A.D.A.A.A.A.S.V.M.M.B.V.b.b.P.P.l.}.xXbX;X`.9._./ w.dXe.d % $ a J H K K V B C C B b B b b b H b b M b M b M b M ",
"A.A.A.A.A.A.A.A.A.A.A.A.C.A.S.V.M.M.N.S.P.P.I.>.>.[.SXvXbX}.'.^ [.NXe.q.O.@ 9 0 i i J G J H M H b c b b b b b b b b b b b b M b ",
"C.C.A.A.C.A.A.A.A.A.S.C.S.V.B.V.C.M.P.P.I.>.>.w.<.iXJXgXfXlX'.].jXaX4.e. .r q +.y p | p i J J J H v b b c c b c b c b b b b b c ",
"C.V.C.C.C.V.A.A.V.S.V.V.V.S.B.S.n.P.I.>.<.,.0.3.4.hXtXjXjXuX}.dXaXe.wX3.) @.@.{ } } o.] | | i J H l v v v v c c c c c c c b c c ",
"V.V.V.S.C.V.V.V.V.V.B.B.B.S.P.I.I.w.<.<.,.,X2X8X7XtXwXVXAXw.uXeXaXpXrX&.#.#.&.>X-.-.$.$.} } ] | i G G v x x c c n x c c c c c b ",
"M.M.N.V.V.V.V.B.B.V.k.M.V.P.>.,.;.qXqXqX2X1X5X7X8XpXpXZXGXeXeXeXVXNXsX&.#.&.*.3X&.@.>X&.@.@.o.} +.u G z g m x m v x x c m c n v ",
"V.N.V.V.V.V.V.N.S.Z.k.k.v.I.<.,.2X6X6X6X5X8X7X7XrX8XaXHXJXAXeXhXZXCXsX*.&.*.2.<X@.:X>X:X>X&.[ o.o.5 $ G x m m n z z c l m c v v ",
"N.N.N.M.N.M.S.b.b.b.N.k.n.>.,.,XqX0X6X0X1X>X3XyX9XrXpXHXJXGXpXhXZXHXpX*.%.2.3.2.$.>X>X&.-.{ ( %.' 5 # 3 n h x v k k c m m m z v ",
"b.N.N.G.M.N.N.v.b.z.h.n.I.<.,.qX0X6X6X0X1X-.0X0X9XrXpXJXJXBXeXZXCXHXwX%.2.3X3X%.&.>X&.&.-.{ _ %.q t $ < z h x k k x k l m x z z ",
"P.P.f.G.M.N.v.x.b.x.b.P.>.,.;.5X0XyX6X6X8X<X0X0X0X3XeXJXJXAXaXAXJXAXqX$.2.7X3X&.:X>X:X:X-.[ o.X.) y $ < 3 g z h k l k m l x x z ",
"P.x.h.G.G.h.v.z.z.x.P.I.<.qXqX6X,X6X9X4X5X5X3.qXq.eXjXjX&Xr.ZXHXJXhX;.&.1X7X8X#.:X>X:X>X-._ $.[ o.] @ # 3 j 1 z k k k k m k k x ",
"P.x.j.j.h.h.x.f.f.f.P.>.,.qX7X5X4X4X9X9X9X7X3.eXBXkXgX_.7.Y jXHXGXrX-.>X5X6X>X$.>X,X-.-.2.) $.{ X.t @ # < 3 1 z j k k k k k k k ",
"f.x.h.j.g.g.h.G.f.f.I.<.;.1X5X8X4X>X9X4X6XqXq.jXSXzXfX=X&X7.r.GXGXqX-.>X2X1X&.o.-.,X=.=.;.w #.$.r q t @ $ i 1 j j j k k m k k k ",
"f.N.j.h.f.g.j.j.j.f.>.,.,X4X>X*.:X4X4X6X2X;.jXDXzX'.`.&X`.^ 6.CXVX*.<X-.2X;.=.] ' ] +.+.s q o.X.X.r e 8 $ < i 1 j k j k k k k g ",
"j.f.f.f.z.s.k.j.G.l.<.;.,X4X*.$.:X4X1X6XwXjXAXlXxX-X=X&X9./ 1.ZXsX*.*.5X2.2.y q y e 8 0 9 7 #.X. .r q 7 5 $ 3 1 j j j j j j g k ",
"j.j.j.f.c.g.j.j.f.>.,.1X9X6X>X&.-.3X=.pXBXAXcXzX;X{.U >./ d e.NX8X%.<X7X-.=.t y | e @ + + 7 $.@._ r r q 5 $ a 2 j j j j j g g g ",
"y.j.f.f.s.s.s.p.c.<.3.5X9X4X:X@.-.2X3.GXAXfXzX;X=XfX|.[.7.O.e.pX2.2.<X*.-.3.;.;.+.y 8 @ + 8 $.@.X.' ) w e u < 2 > j > > > j g g ",
"y.f.f.f.f.f.f.I.>.:.*.:X<X>X&.X.-.2X2XCXHX&X=X=X&Xr.Y d d 1.dXeXO.%.-.&.-.;.3.-.} w 9 6 + q $.@.X. .) r e 8 < 2 g 1 1 1 1 1 g g ",
"d.u.f.f.f.f.l.>.:.;.>X:X:X*.-.>X1X1X-.pXJXjX7.&X9./ a d 6.w.dXeX+.;.=.;.-.-.$.$.} ( t 6 + 7 $.=.` ` ) ) w 8 $ 2 > > > 2 1 1 > g ",
"p.Q f.u.f.f.l.>.0.1X5X8X<X:X<X5X8X:X8XyXZXZXe.6.d     :.dXdX[.[.dXeX;.=.=.=.-.%.#.) t @ o 9 o.$.` [ ) ( ) e # < > > > 2 2 > > g ",
"~ p.u.f.f.l.I ,.,X:X&.*.3X8X4X:X5.8X5.5.pXhXe.1.o O d w.dX}.].gXfXvXdXq.y  .X. .X.q 9 @ o 9 o.} o.` [ _ ` e $ < 2 : 2 : : > , 4 ",
"Q p.y.y.u.l.:.,.>X>X>X,X,X,X>X:X-.%.%.$.;.q.s + o 9 e.dX].R._.*X&X9.7.e.q.e.O. .t 5 5 + 5 5 ) o.' ` ` [ { ` y $ $ 2 : ; > > > 1 ",
"p.p.y.t.u.>.:.;.>X4X4X>X>X&.#.#.[ _ [ o.] y + + 9 y 6.r._.`.R.{.'.D / Y 6.BXNX1.t t t q q 7 r  .` } ` _ _ _ w 8 $ < : > , > 1 1 ",
"Q W t.y.I E :.;.>X:X:X:X#.{ { { ` ) r ' s s + + 7 y eXdX=XgX=X=X=X^ Y f 6.NXBXqX....O.+.] ` ..o.o.o.$.o.o.` t u $ < ; > ; > 2 2 ",
"I P i.F l.K | @.:X{ { { _ _ { { 7 +.4.1.0 + o + ] o.+.w.6.4 ^ ^ D D D d 6.NXpX1.w ' ' ] w r r  ... .o.o...' w 8 $ < ; ; ; > > 2 ",
"Q u.t.P Q J p } [ [ X._ w q r ) y +.s @     o 6 7 o.o.+.[.7.^ 9.`.D Y d q.hXhX=.) ` ( ' q r t r r r ) w q q 7 u O < < ; ; > : : ",
"I I t.P Q J p ' _ _ ) ) w 7 5 5   #   o o @ @ 7 _ $.=.] w.6.Y ^ ^ D f f eXaXtXo.w ( ( w q 7 7 7 t q q q q 5 5 @ # * = ; ; > 2 2 ",
"I I A P ~ J p w ( ) e 9 u 5 @ $ a <   o o % 7 t [ [ =.O.| 6.:./ / 6.Y 0 eXeXwX` w w w q q 7 7 7 6 5 7 q q 5 + @ O . = = ; ; ; ; ",
"I P A P E J a u q q 8 @   X < i G f   o @ 6 e ( [ #.[ =.s y 0 d d s d e.eXeXqXq e w w 5 7 5 6 7 6 5 5 5 5 + @ O   . = = ; ; 2 ; ",
"A A A C K U i $ 8 O O X * 3 H H n 1   + 7 q ( _ X.#.X. .] + 8 e 9 9 y y O.1.+.q 9 9 7 7 8 5 + + @ 6 @ @ + @ O O X . = = = = ; ; ",
"A F A Z K E J 3 X < < z H H K H b 1 X 6 q ) { { #.X.X. .+.0.] ( ` ..' q 5 5 6 6 @ @ + 5 5 @ 5 8 + o o @ o O   X X . < = = ; ; ; ",
"A A A Z K E U J G G U U K N M l b j $ 7 ) _ @.@.#.[ %. .o.qX} } } { ) ) 9 6 9 9 d s 0 0 $ @ @ O O o O     X X X . * * = - ; ; ; ",
"A A N N K K H K K H H B b N N N b 1 $ w _ [ @.{ { #.o. . . .{ @.#._ ( ' t 9 6 @ s s 0 8 @ O O $ # X X # . . . . & & - - = ; ; , ",
"Z C C V N N N N M M b M N N S M b j u r [ [ } @.@.#.`  .r t X.o.{ _ ' q 6 + + + o o + o o       $ . . . . * * * * * & * - - , , ",
"C C C B Z C C C S C S M K c l l H i y ) X.X.#.@.$.{ X.r  .r X.X._ ) ) t 5 6 9 @ + + + + o o     . . . * & & & & - * - - - , , , ",
"C M B B A A A S C S S c b M K H H i s r X.X.o.} } } X.' t  .' ) ) ( w 9 8 9 @ + 5 5 6 @ o o     . . & & & & & & & * - & & , , , ",
"M N K M S S S S A C S S H b v H G i t  .X. .o.o.@.} _ X.r r  .' ' q 7 9 6 8 8 8 5 5 + + o o     . & & & , - & & - * - & , & , , "
};
